<?xml version="1.0" encoding="UTF-8" standalone="no"?>
<!-- Created with Inkscape (http://www.inkscape.org/) -->
<svg xmlns:svg="http://www.w3.org/2000/svg" xmlns="http://www.w3.org/2000/svg" version="1.0" width="814.96063" height="482.59842" id="svg3215">
  <defs id="defs3217"/>
  <g transform="translate(-50.875,-387.5)" id="layer1">
    <g transform="translate(70.578889,17.64296)" id="g3250">
      <path d="M 374.53125,387.5 C 303.0031,387.5 239.29315,421.13575 198.34375,473.4375 L 160,473.4375 C 99.833783,473.43749 50.875,522.3649 50.875,582.53125 L 50.875,648.3125 C 50.875,708.47888 99.833784,757.4375 160,757.4375 L 205.375,757.4375 C 246.39505,804.825 306.98155,834.81252 374.53125,834.8125 C 442.08094,834.8125 502.66745,804.82499 543.6875,757.4375 L 587.375,757.4375 C 647.56455,757.43748 696.53125,708.47886 696.53125,648.3125 L 696.53125,582.53125 C 696.53126,522.36493 647.56455,473.4375 587.375,473.4375 L 550.71875,473.4375 C 509.76935,421.13575 446.0594,387.5 374.53125,387.5 z " style="fill:#000000;fill-rule:evenodd;stroke:none" id="path112"/>
    </g>
  </g>
</svg>