<?xml version="1.0" encoding="UTF-8" standalone="no"?>
<!-- Created with Inkscape (http://www.inkscape.org/) -->
<svg xmlns:svg="http://www.w3.org/2000/svg" xmlns="http://www.w3.org/2000/svg" version="1.0" width="814.96063" height="482.59842" id="svg3215">
  <defs id="defs3217"/>
  <g transform="translate(-50.875,-387.5)" id="layer1">
    <g transform="translate(70.578889,17.64296)" id="g3250">
      <path d="M 244.76732,682.43408 L 208.44847,682.43408 L 201.94468,651.59336 C 197.3057,629.70406 193.03978,603.10586 192.22388,592.77913 C 191.38465,603.10586 187.14206,629.70406 182.50308,651.59336 L 175.97595,682.43408 L 140.07668,682.43408 L 106.20545,540.3987 L 146.76697,540.3987 L 150.61331,564.15289 C 153.8769,584.24722 157.74657,609.00365 159.14522,625.83446 C 160.77701,609.19015 165.22943,584.62014 169.70517,564.31605 L 174.55398,540.3987 L 210.68634,540.3987 L 215.55833,564.31605 C 220.01089,584.62014 224.46331,609.19015 226.11836,625.83446 C 227.51701,609.00365 231.38682,584.24722 234.62702,564.15289 L 238.47336,540.3987 L 278.66196,540.3987 L 244.76732,682.43408 z " style="fill:#ffffff;fill-rule:nonzero;stroke:none;stroke-width:4.96799994;stroke-linecap:butt;stroke-linejoin:miter;stroke-miterlimit:3.86400008;stroke-dasharray:none" id="path120"/>
    </g>
  </g>
</svg>